<svg xmlns="http://www.w3.org/2000/svg" xmlns:xlink="http://www.w3.org/1999/xlink" width="500" zoomAndPan="magnify" viewBox="0 0 375 374.999991" height="500" preserveAspectRatio="xMidYMid meet" version="1.0"><defs><clipPath id="bf52056882"><path d="M 101.035156 100.703125 L 273.953125 100.703125 L 273.953125 273.953125 L 101.035156 273.953125 Z M 101.035156 100.703125 " clip-rule="nonzero"/></clipPath></defs><g clip-path="url(#bf52056882)"><path fill="#000000" d="M 273.953125 164.3125 L 273.953125 210.347656 C 273.953125 211.386719 273.929688 212.429688 273.878906 213.46875 C 273.828125 214.507812 273.75 215.546875 273.648438 216.582031 C 273.546875 217.617188 273.417969 218.652344 273.265625 219.679688 C 273.113281 220.710938 272.9375 221.734375 272.734375 222.757812 C 272.53125 223.777344 272.300781 224.792969 272.050781 225.804688 C 271.796875 226.8125 271.519531 227.816406 271.214844 228.8125 C 270.914062 229.808594 270.585938 230.796875 270.238281 231.777344 C 269.886719 232.757812 269.511719 233.726562 269.113281 234.6875 C 268.714844 235.652344 268.292969 236.601562 267.847656 237.542969 C 267.402344 238.484375 266.933594 239.414062 266.445312 240.332031 C 265.953125 241.25 265.441406 242.15625 264.90625 243.046875 C 264.371094 243.941406 263.8125 244.820312 263.234375 245.6875 C 262.65625 246.550781 262.058594 247.402344 261.4375 248.238281 C 260.816406 249.074219 260.175781 249.894531 259.515625 250.699219 C 258.855469 251.503906 258.175781 252.292969 257.476562 253.0625 C 256.777344 253.835938 256.0625 254.589844 255.324219 255.324219 C 254.589844 256.0625 253.835938 256.777344 253.0625 257.476562 C 252.292969 258.175781 251.503906 258.855469 250.699219 259.515625 C 249.894531 260.175781 249.074219 260.816406 248.238281 261.4375 C 247.402344 262.058594 246.550781 262.65625 245.6875 263.234375 C 244.820312 263.8125 243.941406 264.371094 243.046875 264.90625 C 242.15625 265.441406 241.25 265.953125 240.332031 266.445312 C 239.414062 266.933594 238.484375 267.402344 237.542969 267.847656 C 236.601562 268.292969 235.652344 268.714844 234.6875 269.113281 C 233.726562 269.511719 232.757812 269.886719 231.777344 270.238281 C 230.796875 270.585938 229.808594 270.914062 228.8125 271.214844 C 227.816406 271.519531 226.8125 271.796875 225.804688 272.050781 C 224.792969 272.300781 223.777344 272.53125 222.757812 272.734375 C 221.734375 272.9375 220.710938 273.113281 219.679688 273.265625 C 218.652344 273.417969 217.617188 273.546875 216.582031 273.648438 C 215.546875 273.75 214.507812 273.828125 213.46875 273.878906 C 212.429688 273.929688 211.386719 273.953125 210.347656 273.953125 L 164.3125 273.953125 C 163.273438 273.953125 162.230469 273.929688 161.191406 273.878906 C 160.152344 273.828125 159.113281 273.75 158.078125 273.648438 C 157.042969 273.546875 156.007812 273.417969 154.980469 273.265625 C 153.949219 273.113281 152.925781 272.9375 151.902344 272.734375 C 150.882812 272.53125 149.867188 272.300781 148.855469 272.050781 C 147.847656 271.796875 146.84375 271.519531 145.847656 271.214844 C 144.851562 270.914062 143.863281 270.585938 142.882812 270.238281 C 141.902344 269.886719 140.933594 269.511719 139.972656 269.113281 C 139.007812 268.714844 138.058594 268.292969 137.117188 267.847656 C 136.175781 267.402344 135.246094 266.933594 134.328125 266.445312 C 133.410156 265.953125 132.503906 265.441406 131.613281 264.90625 C 130.71875 264.371094 129.839844 263.8125 128.972656 263.234375 C 128.109375 262.65625 127.257812 262.058594 126.421875 261.4375 C 125.585938 260.816406 124.765625 260.175781 123.960938 259.515625 C 123.15625 258.855469 122.367188 258.175781 121.597656 257.476562 C 120.824219 256.777344 120.070312 256.0625 119.335938 255.324219 C 118.597656 254.589844 117.882812 253.835938 117.183594 253.0625 C 116.484375 252.292969 115.804688 251.503906 115.144531 250.699219 C 114.484375 249.894531 113.84375 249.074219 113.222656 248.238281 C 112.601562 247.402344 112.003906 246.550781 111.425781 245.6875 C 110.847656 244.820312 110.289062 243.941406 109.753906 243.046875 C 109.21875 242.15625 108.707031 241.25 108.214844 240.332031 C 107.726562 239.414062 107.257812 238.484375 106.8125 237.542969 C 106.367188 236.601562 105.945312 235.652344 105.546875 234.6875 C 105.148438 233.726562 104.773438 232.757812 104.421875 231.777344 C 104.074219 230.796875 103.746094 229.808594 103.445312 228.8125 C 103.140625 227.816406 102.863281 226.8125 102.609375 225.804688 C 102.359375 224.792969 102.128906 223.777344 101.925781 222.757812 C 101.722656 221.734375 101.546875 220.710938 101.394531 219.679688 C 101.242188 218.652344 101.113281 217.617188 101.011719 216.582031 C 100.910156 215.546875 100.832031 214.507812 100.78125 213.46875 C 100.730469 212.429688 100.707031 211.386719 100.703125 210.347656 L 100.703125 164.3125 C 100.707031 163.273438 100.730469 162.230469 100.78125 161.191406 C 100.832031 160.152344 100.910156 159.113281 101.011719 158.078125 C 101.113281 157.042969 101.242188 156.007812 101.394531 154.980469 C 101.546875 153.949219 101.722656 152.925781 101.925781 151.902344 C 102.128906 150.882812 102.359375 149.867188 102.609375 148.855469 C 102.863281 147.847656 103.140625 146.84375 103.445312 145.847656 C 103.746094 144.851562 104.074219 143.863281 104.421875 142.882812 C 104.773438 141.902344 105.148438 140.933594 105.546875 139.972656 C 105.945312 139.007812 106.367188 138.058594 106.8125 137.117188 C 107.257812 136.175781 107.726562 135.246094 108.214844 134.328125 C 108.707031 133.410156 109.21875 132.503906 109.753906 131.613281 C 110.289062 130.71875 110.847656 129.839844 111.425781 128.972656 C 112.003906 128.109375 112.601562 127.257812 113.222656 126.421875 C 113.84375 125.585938 114.484375 124.765625 115.144531 123.960938 C 115.804688 123.15625 116.484375 122.367188 117.183594 121.597656 C 117.882812 120.824219 118.597656 120.070312 119.335938 119.335938 C 120.070312 118.597656 120.824219 117.882812 121.597656 117.183594 C 122.367188 116.484375 123.15625 115.804688 123.960938 115.144531 C 124.765625 114.484375 125.585938 113.84375 126.421875 113.222656 C 127.257812 112.601562 128.109375 112.003906 128.972656 111.425781 C 129.839844 110.847656 130.71875 110.289062 131.613281 109.753906 C 132.503906 109.21875 133.410156 108.707031 134.328125 108.214844 C 135.246094 107.726562 136.175781 107.257812 137.117188 106.8125 C 138.058594 106.367188 139.007812 105.945312 139.972656 105.546875 C 140.933594 105.148438 141.902344 104.773438 142.882812 104.421875 C 143.863281 104.074219 144.851562 103.746094 145.847656 103.445312 C 146.84375 103.140625 147.847656 102.863281 148.855469 102.609375 C 149.867188 102.359375 150.882812 102.128906 151.902344 101.925781 C 152.925781 101.722656 153.949219 101.546875 154.980469 101.394531 C 156.007812 101.242188 157.042969 101.113281 158.078125 101.011719 C 159.113281 100.910156 160.152344 100.832031 161.191406 100.78125 C 162.230469 100.730469 163.273438 100.703125 164.3125 100.703125 L 210.347656 100.703125 C 211.386719 100.707031 212.429688 100.730469 213.46875 100.78125 C 214.507812 100.832031 215.546875 100.910156 216.582031 101.011719 C 217.617188 101.113281 218.652344 101.242188 219.679688 101.394531 C 220.710938 101.546875 221.734375 101.722656 222.757812 101.925781 C 223.777344 102.128906 224.792969 102.359375 225.804688 102.613281 C 226.8125 102.863281 227.816406 103.140625 228.8125 103.445312 C 229.808594 103.746094 230.796875 104.074219 231.777344 104.421875 C 232.757812 104.773438 233.726562 105.148438 234.6875 105.546875 C 235.652344 105.945312 236.601562 106.367188 237.542969 106.8125 C 238.484375 107.257812 239.414062 107.726562 240.332031 108.214844 C 241.25 108.707031 242.15625 109.21875 243.046875 109.753906 C 243.941406 110.289062 244.820312 110.847656 245.6875 111.425781 C 246.550781 112.003906 247.402344 112.601562 248.238281 113.222656 C 249.074219 113.84375 249.894531 114.484375 250.699219 115.144531 C 251.503906 115.804688 252.292969 116.484375 253.0625 117.183594 C 253.835938 117.882812 254.589844 118.597656 255.324219 119.335938 C 256.0625 120.070312 256.777344 120.824219 257.476562 121.597656 C 258.175781 122.367188 258.855469 123.15625 259.515625 123.960938 C 260.175781 124.765625 260.816406 125.585938 261.4375 126.421875 C 262.058594 127.257812 262.65625 128.109375 263.234375 128.972656 C 263.8125 129.839844 264.371094 130.71875 264.90625 131.613281 C 265.441406 132.503906 265.953125 133.410156 266.445312 134.328125 C 266.933594 135.246094 267.402344 136.175781 267.847656 137.117188 C 268.292969 138.058594 268.714844 139.007812 269.113281 139.972656 C 269.511719 140.933594 269.886719 141.902344 270.238281 142.882812 C 270.585938 143.863281 270.914062 144.851562 271.214844 145.847656 C 271.519531 146.84375 271.796875 147.847656 272.046875 148.855469 C 272.300781 149.867188 272.53125 150.882812 272.734375 151.902344 C 272.9375 152.925781 273.113281 153.949219 273.265625 154.980469 C 273.417969 156.007812 273.546875 157.042969 273.648438 158.078125 C 273.75 159.113281 273.828125 160.152344 273.878906 161.191406 C 273.929688 162.230469 273.953125 163.273438 273.953125 164.3125 Z M 137.828125 189.527344 C 138.632812 204.53125 151.257812 230.640625 182.410156 230.640625 L 227.546875 230.640625 C 228.160156 230.640625 228.761719 230.582031 229.359375 230.464844 C 229.957031 230.34375 230.539062 230.167969 231.101562 229.9375 C 231.664062 229.703125 232.199219 229.417969 232.707031 229.078125 C 233.210938 228.738281 233.679688 228.355469 234.113281 227.925781 C 234.542969 227.492188 234.925781 227.023438 235.265625 226.519531 C 235.605469 226.011719 235.890625 225.476562 236.125 224.914062 C 236.355469 224.351562 236.53125 223.769531 236.652344 223.171875 C 236.769531 222.574219 236.828125 221.972656 236.828125 221.359375 L 236.828125 215.171875 C 236.828125 214.5625 236.769531 213.960938 236.652344 213.363281 C 236.53125 212.765625 236.355469 212.183594 236.125 211.621094 C 235.890625 211.058594 235.605469 210.523438 235.265625 210.015625 C 234.925781 209.511719 234.542969 209.042969 234.113281 208.609375 C 233.679688 208.179688 233.210938 207.796875 232.707031 207.457031 C 232.199219 207.117188 231.664062 206.832031 231.101562 206.597656 C 230.539062 206.367188 229.957031 206.191406 229.359375 206.070312 C 228.761719 205.953125 228.160156 205.890625 227.546875 205.890625 L 181.792969 205.890625 C 180.65625 205.910156 179.523438 205.824219 178.402344 205.636719 C 177.28125 205.453125 176.183594 205.167969 175.113281 204.785156 C 174.039062 204.402344 173.011719 203.925781 172.027344 203.355469 C 171.039062 202.789062 170.113281 202.136719 169.246094 201.402344 C 168.375 200.667969 167.578125 199.863281 166.855469 198.984375 C 166.132812 198.105469 165.492188 197.171875 164.9375 196.179688 C 164.378906 195.183594 163.917969 194.152344 163.546875 193.074219 C 163.179688 192 162.90625 190.898438 162.734375 189.773438 C 162.578125 188.625 162.53125 187.46875 162.59375 186.308594 C 162.652344 185.148438 162.824219 184.003906 163.097656 182.875 C 163.375 181.746094 163.753906 180.65625 164.234375 179.597656 C 164.714844 178.539062 165.289062 177.535156 165.960938 176.585938 C 166.628906 175.636719 167.382812 174.761719 168.214844 173.953125 C 169.050781 173.144531 169.953125 172.421875 170.921875 171.78125 C 171.894531 171.144531 172.914062 170.601562 173.984375 170.152344 C 175.058594 169.707031 176.160156 169.363281 177.296875 169.121094 C 178.433594 168.882812 179.585938 168.75 180.746094 168.726562 C 181.90625 168.703125 183.058594 168.789062 184.207031 168.980469 C 185.351562 169.171875 186.46875 169.46875 187.558594 169.871094 C 188.648438 170.273438 189.691406 170.773438 190.6875 171.371094 C 191.683594 171.96875 192.613281 172.65625 193.480469 173.429688 C 194.347656 174.203125 195.136719 175.046875 195.84375 175.96875 C 196.550781 176.890625 197.167969 177.867188 197.691406 178.902344 C 198.214844 179.941406 198.640625 181.015625 198.960938 182.132812 C 199.160156 182.871094 199.472656 183.558594 199.894531 184.195312 C 200.316406 184.828125 200.828125 185.382812 201.433594 185.851562 C 202.035156 186.320312 202.699219 186.679688 203.417969 186.933594 C 204.140625 187.1875 204.882812 187.320312 205.644531 187.328125 L 216.84375 187.328125 C 217.347656 187.332031 217.847656 187.28125 218.339844 187.175781 C 218.832031 187.066406 219.308594 186.910156 219.765625 186.699219 C 220.226562 186.488281 220.65625 186.230469 221.058594 185.925781 C 221.457031 185.621094 221.824219 185.273438 222.148438 184.890625 C 222.472656 184.503906 222.753906 184.089844 222.988281 183.640625 C 223.222656 183.195312 223.40625 182.730469 223.539062 182.242188 C 223.671875 181.753906 223.75 181.261719 223.773438 180.757812 C 223.796875 180.253906 223.765625 179.753906 223.679688 179.253906 C 223.4375 177.914062 223.128906 176.585938 222.761719 175.273438 C 222.390625 173.960938 221.960938 172.671875 221.46875 171.398438 C 220.976562 170.128906 220.429688 168.882812 219.820312 167.660156 C 219.210938 166.441406 218.542969 165.253906 217.824219 164.097656 C 217.101562 162.941406 216.328125 161.820312 215.5 160.734375 C 214.671875 159.652344 213.796875 158.609375 212.871094 157.609375 C 211.945312 156.609375 210.976562 155.652344 209.960938 154.742188 C 208.941406 153.832031 207.886719 152.972656 206.789062 152.164062 C 205.691406 151.355469 204.558594 150.597656 203.390625 149.894531 C 202.222656 149.195312 201.023438 148.546875 199.796875 147.957031 C 198.566406 147.367188 197.3125 146.839844 196.03125 146.367188 C 194.753906 145.898438 193.453125 145.488281 192.136719 145.136719 C 190.816406 144.789062 189.488281 144.503906 188.140625 144.28125 C 186.796875 144.058594 185.445312 143.902344 184.082031 143.804688 C 182.722656 143.710938 181.363281 143.679688 180 143.714844 C 178.636719 143.746094 177.277344 143.84375 175.925781 144.007812 C 174.570312 144.167969 173.226562 144.394531 171.894531 144.683594 C 170.5625 144.972656 169.246094 145.324219 167.949219 145.738281 C 166.648438 146.148438 165.371094 146.621094 164.117188 147.15625 C 162.863281 147.691406 161.636719 148.28125 160.4375 148.929688 C 159.238281 149.582031 158.074219 150.285156 156.941406 151.042969 C 155.808594 151.804688 154.714844 152.613281 153.660156 153.476562 C 152.601562 154.339844 151.589844 155.25 150.621094 156.210938 C 149.652344 157.167969 148.730469 158.171875 147.855469 159.214844 C 146.980469 160.261719 146.15625 161.34375 145.382812 162.46875 C 144.609375 163.59375 143.890625 164.75 143.230469 165.941406 C 142.566406 167.132812 141.960938 168.351562 141.410156 169.601562 C 140.863281 170.847656 140.375 172.121094 139.949219 173.414062 C 139.519531 174.707031 139.152344 176.019531 138.847656 177.347656 C 138.542969 178.679688 138.304688 180.019531 138.125 181.371094 C 137.949219 182.722656 137.835938 184.078125 137.785156 185.441406 C 137.734375 186.804688 137.75 188.164062 137.828125 189.527344 Z M 137.828125 189.527344 " fill-opacity="1" fill-rule="nonzero"/></g></svg>